<svg width="12" height="16" viewBox="0 0 12 16" fill="none" xmlns="http://www.w3.org/2000/svg">
<path fill-rule="evenodd" clip-rule="evenodd" d="M0.5 16C0.2235 16 0 15.7765 0 15.5V0.5C0 0.2235 0.2235 0 0.5 0H1.5025C3.319 0 4.1895 0.2685 5.0315 0.529C5.816 0.771 6.5565 0.9995 8 0.9995C9.3295 0.9995 10.7025 0.767 11.403 0.6285C11.435 0.6215 11.468 0.6185 11.5 0.6185C11.6145 0.6185 11.727 0.658 11.8175 0.7325C11.933 0.827 12 0.969 12 1.1185V8.124C12 8.35 11.8485 8.548 11.6305 8.607C11.0875 8.7535 10.0235 8.9995 9 8.9995C7.6025 8.9995 6.839 8.7815 6.0305 8.5515C5.124 8.2925 4.1 8 2 8V15.5C2 15.7765 1.7765 16 1.5 16H0.5Z" fill="#B1C4E3"/>
</svg>
