<svg xmlns="http://www.w3.org/2000/svg" width="12" height="14" fill="none" viewBox="0 0 12 13">
    <mask id="b" fill="currentColor">
        <path d="M11.773 6.312c0 3.313-2.635 6-5.886 6-3.252 0-5.887-2.687-5.887-6 0-3.314 2.635-6 5.887-6 3.25 0 5.886 2.686 5.886 6z"/>
    </mask>
    <path fill="currentColor" d="M5.396 6.812h-.6v.6h.6v-.6zm-.6-3.5v3.5h1.2v-3.5h-1.2zm.6 4.1h2.453v-1.2H5.396v1.2zm5.177-1.1c0 2.672-2.12 4.8-4.686 4.8v2.4c3.935 0 7.086-3.246 7.086-7.2h-2.4zm-4.686 4.8c-2.567 0-4.687-2.128-4.687-4.8h-2.4c0 3.954 3.151 7.2 7.087 7.2v-2.4zM1.2 6.311c0-2.673 2.12-4.8 4.687-4.8v-2.4C1.95-.888-1.2 2.357-1.2 6.312h2.4zm4.687-4.8c2.566 0 4.686 2.127 4.686 4.8h2.4c0-3.955-3.151-7.2-7.086-7.2v2.4z" mask="url(#b)"/>
</svg>
