<svg width="12" height="13" viewBox="0 0 12 13" fill="none" xmlns="http://www.w3.org/2000/svg">
<path fill-rule="evenodd" clip-rule="evenodd" d="M5.14796 1.7355C5.53858 1.10184 6.45984 1.10184 6.85046 1.73549L11.8403 9.82985C12.251 10.4961 11.7717 11.3546 10.989 11.3546H1.00939C0.226725 11.3546 -0.25257 10.4961 0.158142 9.82985L5.14796 1.7355ZM6.49921 9.35461C6.49921 9.63076 6.27536 9.85461 5.99921 9.85461C5.72307 9.85461 5.49921 9.63076 5.49921 9.35461C5.49921 9.07847 5.72307 8.85461 5.99921 8.85461C6.27536 8.85461 6.49921 9.07847 6.49921 9.35461ZM5.99921 3.85461C5.72307 3.85461 5.49921 4.07847 5.49921 4.35461V7.35461C5.49921 7.63076 5.72307 7.85461 5.99921 7.85461C6.27536 7.85461 6.49921 7.63076 6.49921 7.35461V4.35461C6.49921 4.07847 6.27536 3.85461 5.99921 3.85461Z" fill="currentColor"/>
</svg>
