<svg xmlns="http://www.w3.org/2000/svg" fill="none" viewBox="0 0 14 15" width="14" height="15">
  <mask id="a" fill="currentColor">
    <path d="M13.982 7.692A6.99 6.99 0 1 1 0 7.692a6.99 6.99 0 0 1 13.982 0z"/>
  </mask>
  <path fill="currentColor"
        d="M6.408 8.274h-.6v.6h.6v-.6zm-.6-4.077v4.077h1.2V4.197h-1.2zm.6 4.677h2.913v-1.2H6.408v1.2zm6.373-1.182a5.79 5.79 0 0 1-5.79 5.79v2.4a8.19 8.19 0 0 0 8.19-8.19h-2.4zm-5.79 5.79A5.79 5.79 0 0 1 1.2 7.693h-2.4a8.19 8.19 0 0 0 8.19 8.19v-2.4zM1.2 7.693a5.79 5.79 0 0 1 5.79-5.79v-2.4a8.19 8.19 0 0 0-8.19 8.19h2.4zm5.79-5.79a5.79 5.79 0 0 1 5.791 5.79h2.4a8.19 8.19 0 0 0-8.19-8.19v2.4z"
        mask="url(#a)"/>
</svg>
