<svg width="18" height="18" viewBox="0 0 18 18" fill="none" xmlns="http://www.w3.org/2000/svg">
<path d="M9.60059 12.1201H7.74805V14H6.50391V12.1201H5.30762V11.04H6.50391V10.1035H5.30762V9.03027H6.50391V4.04688H9.67578C10.5872 4.04688 11.3073 4.32031 11.8359 4.86719C12.3691 5.41406 12.6357 6.14551 12.6357 7.06152C12.6357 8.01855 12.3828 8.76367 11.877 9.29688C11.3711 9.82552 10.6533 10.0944 9.72363 10.1035H7.74805V11.04H9.60059V12.1201ZM7.74805 9.03027H9.67578C10.2363 9.03027 10.6602 8.86165 10.9473 8.52441C11.2389 8.18717 11.3848 7.7041 11.3848 7.0752C11.3848 6.50553 11.2367 6.04069 10.9404 5.68066C10.6442 5.32064 10.2363 5.13607 9.7168 5.12695H7.74805V9.03027Z" fill="currentColor"/>
</svg>
