<svg width="23" height="23" viewBox="0 0 23 23" fill="none" xmlns="http://www.w3.org/2000/svg">
<rect x="1" y="1" width="21" height="21" rx="2" stroke="white"/>
<path d="M11.3079 15C12.5805 15 13.6158 13.9916 13.6158 12.7521C13.6158 12 13.2342 11.3335 12.65 10.9251L13.9606 7.73415C14.0733 7.4597 13.9362 7.14821 13.6544 7.03845C13.3728 6.92863 13.0528 7.06207 12.9401 7.3366L11.63 10.5266C11.5246 10.5122 11.4172 10.5042 11.3079 10.5042C10.0353 10.5042 9 11.5127 9 12.7521C9 13.9916 10.0353 15 11.3079 15ZM11.3079 11.5747C11.9745 11.5747 12.5168 12.1029 12.5168 12.7521C12.5168 13.4014 11.9745 13.9296 11.3079 13.9296C10.6413 13.9296 10.099 13.4014 10.099 12.7521C10.099 12.1029 10.6413 11.5747 11.3079 11.5747Z" fill="white"/>
<path d="M6.73321 8.28332C6.83747 8.38274 6.9741 8.43253 7.11066 8.43253C7.24722 8.43253 7.38386 8.38281 7.48811 8.28332C7.69655 8.08439 7.69655 7.76187 7.48811 7.56301L6.63259 6.74654C7.88221 5.7126 9.40987 5.14238 10.9662 5.03643V6.1355C10.9662 6.41681 11.2051 6.64487 11.4999 6.64487C11.7948 6.64487 12.0337 6.41681 12.0337 6.1355V5.03637C13.59 5.14231 15.1176 5.71253 16.3673 6.74647L15.5117 7.56294C15.3033 7.76187 15.3033 8.08439 15.5117 8.28325C15.616 8.38268 15.7526 8.43246 15.8892 8.43246C16.0258 8.43246 16.1624 8.38274 16.2666 8.28325L17.1221 7.46684C18.2055 8.65943 18.803 10.1174 18.9139 11.6027H17.7622C17.4674 11.6027 17.2285 11.8307 17.2285 12.112C17.2285 12.3933 17.4674 12.6214 17.7622 12.6214H18.9138C18.8028 14.1067 18.2053 15.5646 17.122 16.7572L16.2666 15.9408C16.0581 15.7419 15.7202 15.7419 15.5117 15.9408C15.3033 16.1397 15.3033 16.4623 15.5117 16.6611C15.5117 16.6611 16.7501 17.8428 16.7584 17.8508C16.8626 17.9502 16.9992 18 17.1358 18C17.2724 18 17.409 17.9503 17.5133 17.8508C20.8289 14.6864 20.8289 9.53764 17.5133 6.37327C14.1975 3.20891 8.80249 3.20891 5.48672 6.37327C2.17109 9.53764 2.17109 14.6864 5.48672 17.8508C5.69516 18.0497 6.03304 18.0498 6.24155 17.8508C6.24987 17.8428 7.48818 16.6611 7.48818 16.6611C7.69662 16.4622 7.69662 16.1397 7.48818 15.9408C7.27967 15.7419 6.94179 15.7419 6.73336 15.9408L5.8779 16.7572C4.79452 15.5646 4.19703 14.1067 4.08609 12.6214H5.23751C5.53234 12.6214 5.77123 12.3933 5.77123 12.112C5.77123 11.8307 5.53234 11.6027 5.23751 11.6027H4.08588C4.19689 10.1174 4.79438 8.65943 5.87769 7.46684L6.73321 8.28332Z" fill="white"/>
</svg>
