<svg width="23" height="23" viewBox="0 0 23 23" fill="none" xmlns="http://www.w3.org/2000/svg">
<rect x="1" y="1" width="21" height="21" rx="2" stroke="white"/>
<path d="M16.5034 6.61031C16.5034 6.99258 16.1456 7.49802 15.1923 7.937C14.2818 8.35624 12.9889 8.62882 11.5339 8.62882C10.0789 8.62882 8.78601 8.35624 7.87555 7.937C6.92222 7.49802 6.56445 6.99258 6.56445 6.61031C6.56445 6.22804 6.92222 5.7226 7.87555 5.28362C8.78601 4.86438 10.0789 4.5918 11.5339 4.5918C12.9889 4.5918 14.2818 4.86438 15.1923 5.28362C16.1456 5.7226 16.5034 6.22804 16.5034 6.61031Z" stroke="white"/>
<path d="M16.5034 16.3896C16.5034 16.7719 16.1456 17.2773 15.1923 17.7163C14.2818 18.1355 12.9889 18.4081 11.5339 18.4081C10.0789 18.4081 8.78601 18.1355 7.87555 17.7163C6.92222 17.2773 6.56445 16.7719 6.56445 16.3896C6.56445 16.0073 6.92222 15.5019 7.87555 15.0629C8.78601 14.6437 10.0789 14.3711 11.5339 14.3711C12.9889 14.3711 14.2818 14.6437 15.1923 15.0629C16.1456 15.5019 16.5034 16.0073 16.5034 16.3896Z" stroke="white"/>
<path fill-rule="evenodd" clip-rule="evenodd" d="M6.05859 16.4473V6.70117H7.05859V16.4473H6.05859Z" fill="white"/>
<path fill-rule="evenodd" clip-rule="evenodd" d="M16.002 16.4473V6.70117H17.002V16.4473H16.002Z" fill="white"/>
</svg>
