<svg width="42" height="38" viewBox="0 0 42 38" fill="none" xmlns="http://www.w3.org/2000/svg">
<path d="M33.1211 25.4694H27.6769L25.8939 14.3673H27.3239V10.449H25.2652L24.2166 3.91837H25.3915V0C25.3915 0 52.4759 0 17.6619 0V3.91837H18.8368L17.7882 10.449H15.7296V14.3673H17.1589L15.3759 25.4694H9.93239V30.6939H1V32H41.134V30.6939H33.1211V25.4694ZM14.5373 30.6939H11.2206V26.7755H15.1666L14.5373 30.6939ZM18.9502 1.30612H24.1033V2.61224H18.9502V1.30612ZM22.9715 7.16669L19.2104 9.72213L19.9698 4.99266L22.9715 7.16669ZM20.7029 3.91837H22.9116L23.2015 5.728L20.7029 3.91837ZM23.615 8.30172L23.9596 10.449H20.4542L23.615 8.30172ZM17.0178 13.0612V11.7551H26.0356V13.0612H17.0178ZM25.4295 19.6016L18.7183 14.3673H24.5889L25.4295 19.6016ZM18.2578 15.6558L25.3838 21.2134L16.355 27.5063L18.2578 15.6558ZM15.8429 30.6939L16.0755 29.2454L16.0941 29.2728L25.8862 22.4477L27.2105 30.6939H15.8429ZM31.8328 30.6939H28.5162L27.8868 26.7755H31.8328V30.6939Z" fill="white"/>
<path d="M8.5 31.5L3 37" stroke="white"/>
<path d="M3.5 31.5L0.75 34.25" stroke="white"/>
<path d="M13.5 31.5L8 37" stroke="white"/>
<path d="M18.5 31.5L13 37" stroke="white"/>
<path d="M23.5 31.5L18 37" stroke="white"/>
<path d="M28.5 31.5L23 37" stroke="white"/>
<path d="M33.5 31.5L28 37" stroke="white"/>
<path d="M38.5 31.5L33 37" stroke="white"/>
<path d="M38 37L40.75 34.25" stroke="white"/>
</svg>
