<svg width="70" height="46" viewBox="0 0 70 46" fill="none" xmlns="http://www.w3.org/2000/svg">
<path d="M39.8828 11.9824L36.2673 15.8938" stroke="white"/>
<mask id="path-2-inside-1" fill="white">
<path fill-rule="evenodd" clip-rule="evenodd" d="M33.6124 18.847L24.3939 23.9756L24.3939 34.2327L33.6124 39.3613L42.8309 34.2327V23.9756L33.6124 18.847ZM43.8124 23.4295L33.6124 17.7549L23.4124 23.4295L23.4124 34.7788L33.6124 40.4534L43.8124 34.7788V23.4295Z"/>
</mask>
<path fill-rule="evenodd" clip-rule="evenodd" d="M33.6124 18.847L24.3939 23.9756L24.3939 34.2327L33.6124 39.3613L42.8309 34.2327V23.9756L33.6124 18.847ZM43.8124 23.4295L33.6124 17.7549L23.4124 23.4295L23.4124 34.7788L33.6124 40.4534L43.8124 34.7788V23.4295Z" fill="white"/>
<path d="M24.3939 23.9756L23.9077 23.1017L23.3939 23.3876V23.9756H24.3939ZM33.6124 18.847L34.0986 17.9731L33.6124 17.7026L33.1262 17.9731L33.6124 18.847ZM24.3939 34.2327H23.3939V34.8207L23.9077 35.1066L24.3939 34.2327ZM33.6124 39.3613L33.1262 40.2352L33.6124 40.5057L34.0986 40.2352L33.6124 39.3613ZM42.8309 34.2327L43.3171 35.1066L43.8309 34.8207V34.2327H42.8309ZM42.8309 23.9756H43.8309V23.3876L43.3171 23.1017L42.8309 23.9756ZM33.6124 17.7549L34.0986 16.881L33.6124 16.6105L33.1262 16.881L33.6124 17.7549ZM43.8124 23.4295H44.8124V22.8415L44.2986 22.5556L43.8124 23.4295ZM23.4124 23.4295L22.9263 22.5556L22.4124 22.8415V23.4295H23.4124ZM23.4124 34.7788H22.4124V35.3668L22.9263 35.6526L23.4124 34.7788ZM33.6124 40.4534L33.1262 41.3273L33.6124 41.5977L34.0986 41.3273L33.6124 40.4534ZM43.8124 34.7788L44.2986 35.6526L44.8124 35.3668V34.7788H43.8124ZM24.8801 24.8494L34.0986 19.7208L33.1262 17.9731L23.9077 23.1017L24.8801 24.8494ZM25.3939 34.2327L25.3939 23.9756H23.3939L23.3939 34.2327H25.3939ZM34.0986 38.4874L24.8801 33.3589L23.9077 35.1066L33.1262 40.2352L34.0986 38.4874ZM42.3447 33.3589L33.1262 38.4874L34.0986 40.2352L43.3171 35.1066L42.3447 33.3589ZM41.8309 23.9756V34.2327H43.8309V23.9756H41.8309ZM33.1262 19.7208L42.3447 24.8494L43.3171 23.1017L34.0986 17.9731L33.1262 19.7208ZM33.1262 18.6288L43.3262 24.3034L44.2986 22.5556L34.0986 16.881L33.1262 18.6288ZM23.8986 24.3034L34.0986 18.6288L33.1262 16.881L22.9263 22.5556L23.8986 24.3034ZM24.4124 34.7788L24.4124 23.4295H22.4124L22.4124 34.7788H24.4124ZM34.0986 39.5795L23.8986 33.9049L22.9263 35.6526L33.1262 41.3273L34.0986 39.5795ZM43.3262 33.9049L33.1262 39.5795L34.0986 41.3273L44.2986 35.6526L43.3262 33.9049ZM42.8124 23.4295V34.7788H44.8124V23.4295H42.8124Z" fill="white" mask="url(#path-2-inside-1)"/>
<path d="M48.6587 9.2373C48.5962 10.4561 48.2525 11.3883 47.6275 12.0342C47.0077 12.68 46.1301 13.0029 44.9947 13.0029C43.854 13.0029 42.9478 12.5706 42.2759 11.7061C41.604 10.8363 41.2681 9.65918 41.2681 8.1748V6.1123C41.2681 4.63314 41.6118 3.46387 42.2993 2.60449C42.9921 1.74512 43.9348 1.31543 45.1275 1.31543C46.2264 1.31543 47.0754 1.64616 47.6743 2.30762C48.2785 2.96387 48.6066 3.90397 48.6587 5.12793H47.2134C47.1509 4.20085 46.9556 3.53939 46.6275 3.14355C46.2993 2.74772 45.7993 2.5498 45.1275 2.5498C44.3514 2.5498 43.7551 2.85449 43.3384 3.46387C42.9217 4.06803 42.7134 4.95605 42.7134 6.12793V8.21387C42.7134 9.36491 42.9061 10.2477 43.2915 10.8623C43.6822 11.4769 44.2499 11.7842 44.9947 11.7842C45.7395 11.7842 46.2759 11.5993 46.604 11.2295C46.9322 10.8597 47.1353 10.1956 47.2134 9.2373H48.6587ZM60.95 12.8467H59.5125V7.58887H54.9344V12.8467H53.5047V1.47168H54.9344V6.3623H59.5125V1.47168H60.95V12.8467Z" fill="white"/>
<path d="M49.8379 12.5928L49.877 13.1152C50.1895 12.7018 50.598 12.4951 51.1025 12.4951C52.0107 12.4951 52.4779 13.1315 52.5039 14.4043V17.876H51.1172V14.5068C51.1172 14.2074 51.0716 13.9909 50.9805 13.8574C50.8926 13.7207 50.7363 13.6523 50.5117 13.6523C50.2611 13.6523 50.0658 13.7809 49.9258 14.0381V17.876H48.5391V12.5928H49.8379Z" fill="white"/>
<path d="M63.2971 12.4717L63.3361 12.96C63.6454 12.5693 64.0539 12.374 64.5617 12.374C65.089 12.374 65.4618 12.6117 65.6799 13.0869C65.9826 12.6117 66.4139 12.374 66.9738 12.374C67.8983 12.374 68.3719 13.0137 68.3947 14.293V17.7549H67.0129V14.3809C67.0129 14.0749 66.9706 13.8568 66.8859 13.7266C66.8013 13.5964 66.6581 13.5312 66.4562 13.5312C66.1991 13.5312 66.007 13.6891 65.8801 14.0049L65.8898 14.1709V17.7549H64.508V14.3906C64.508 14.0879 64.4673 13.8698 64.3859 13.7363C64.3045 13.5996 64.1597 13.5312 63.9514 13.5312C63.7137 13.5312 63.5249 13.6598 63.3849 13.917V17.7549H62.0031V12.4717H63.2971Z" fill="white"/>
</svg>
