<svg width="32" height="32" viewBox="0 0 32 32" fill="none" xmlns="http://www.w3.org/2000/svg">
<path d="M16 0C7.18222 0 0 7.18222 0 16C0 24.8178 7.18222 32 16 32C24.8178 32 32 24.8178 32 16C32 7.18222 24.8178 0 16 0ZM16 30.2222C8.14222 30.2222 1.77778 23.8578 1.77778 16C1.77778 8.14222 8.14222 1.77778 16 1.77778C23.8578 1.77778 30.2222 8.14222 30.2222 16C30.2222 23.8578 23.8578 30.2222 16 30.2222Z" fill="white"/>
<path d="M18.9524 12.0887C20.3035 9.99087 22.1169 8.17754 24.2502 6.86198C24.4635 6.71976 24.5346 6.47087 24.3924 6.25754C24.2502 6.04421 24.0013 5.97309 23.788 6.11532C21.548 7.50198 19.628 9.42198 18.2058 11.662C17.9569 11.5553 17.708 11.4487 17.4591 11.3775C17.9924 8.92421 19.0946 6.61309 20.6235 4.65754C20.7658 4.47976 20.7302 4.19532 20.5524 4.01754C20.3746 3.87532 20.0902 3.91087 19.9124 4.08865C18.2769 6.15087 17.1035 8.60421 16.5702 11.1998C16.2858 11.1642 16.0369 11.1642 15.7524 11.1642C15.3969 8.67532 15.6458 6.11532 16.428 3.73309C16.4991 3.4842 16.3924 3.23532 16.1435 3.1642C15.8946 3.09309 15.6458 3.19976 15.5746 3.44865C14.7213 5.97309 14.508 8.67532 14.8635 11.2709C14.6146 11.342 14.3302 11.4131 14.0813 11.5198C12.908 9.31532 12.268 6.82643 12.1969 4.30198C12.1969 4.05309 11.9835 3.87532 11.7346 3.87532C11.4858 3.87532 11.308 4.08865 11.308 4.33754C11.3791 6.96865 12.0902 9.59976 13.2991 11.9109C13.0858 12.0531 12.8724 12.2309 12.6591 12.4087C10.8102 10.7375 9.35242 8.60421 8.42797 6.29309C8.32131 6.07976 8.07242 5.93754 7.85909 6.04421C7.64575 6.15087 7.50353 6.39976 7.6102 6.61309C8.5702 9.06643 10.1346 11.3064 12.0902 13.0842C11.9124 13.2975 11.7702 13.5464 11.6635 13.7598C9.35242 12.7998 7.25464 11.342 5.58353 9.45754C5.40575 9.27976 5.15686 9.24421 4.94353 9.42198C4.76575 9.59976 4.7302 9.84865 4.90797 10.062C6.68575 12.0531 8.8902 13.6175 11.3435 14.6131C11.2724 14.862 11.2013 15.1464 11.1658 15.3953C8.67686 15.2886 6.18797 14.6131 3.98353 13.4398C3.7702 13.3331 3.48575 13.4042 3.37908 13.6175C3.27242 13.8309 3.34353 14.1153 3.55686 14.222C5.90353 15.502 8.49908 16.1775 11.1658 16.2842C11.1658 16.4975 11.2013 16.7109 11.2369 16.9598C11.2369 16.9953 11.2724 17.0664 11.2724 17.102C8.8902 17.8486 6.3302 18.0975 3.84131 17.7064C3.59242 17.6709 3.37908 17.8487 3.34353 18.0975C3.30797 18.3464 3.48575 18.5598 3.73464 18.5953C4.55242 18.702 5.40575 18.7731 6.25908 18.7731C8.07242 18.7731 9.85019 18.4887 11.5924 17.9553C11.6991 18.2042 11.8413 18.4531 11.9835 18.6664C9.99242 20.1953 7.68131 21.262 5.22797 21.7953C4.97908 21.8309 4.83686 22.0798 4.87242 22.3287C4.90797 22.542 5.08575 22.6842 5.29908 22.6842C5.33464 22.6842 5.3702 22.6842 5.40575 22.6842C8.00131 22.1509 10.4546 21.0131 12.5524 19.4131C12.7302 19.6264 12.9435 19.8042 13.1569 19.9464C11.8058 22.0442 9.99242 23.8575 7.85909 25.1731C7.64575 25.3153 7.57464 25.5642 7.71686 25.7775C7.78797 25.9198 7.9302 25.9909 8.10797 25.9909C8.17908 25.9909 8.2502 25.9553 8.35686 25.9198C10.5969 24.5331 12.5169 22.6131 13.9391 20.3731C14.188 20.4798 14.4369 20.5864 14.6858 20.6575C14.1524 23.1109 13.0502 25.422 11.5213 27.3775C11.3791 27.5553 11.4146 27.8398 11.5924 28.0175C11.6635 28.0887 11.7702 28.1242 11.8769 28.1242C12.0191 28.1242 12.1258 28.0531 12.2324 27.9464C13.868 25.8842 15.0413 23.4309 15.5746 20.8353C15.7524 20.8709 15.9302 20.8709 16.1435 20.8709C16.2146 20.8709 16.3213 20.8709 16.3924 20.8709C16.748 23.3598 16.4991 25.9198 15.7169 28.302C15.6458 28.5509 15.7524 28.7998 16.0013 28.8709C16.0369 28.8709 16.108 28.9064 16.1435 28.9064C16.3213 28.9064 16.4991 28.7998 16.5702 28.5864C17.4235 26.062 17.6369 23.3598 17.2813 20.7642C17.5302 20.6931 17.8146 20.622 18.0635 20.5153C19.2369 22.7198 19.8769 25.2087 19.948 27.7331C19.948 27.982 20.1613 28.1598 20.3746 28.1598C20.6235 28.1598 20.8013 27.9464 20.8013 27.6975C20.6235 25.0309 19.9124 22.3998 18.7035 20.0886C18.9169 19.9464 19.1302 19.7687 19.3435 19.5909C21.1924 21.262 22.6858 23.3953 23.6102 25.7064C23.6813 25.8842 23.8591 25.9909 24.0369 25.9909C24.108 25.9909 24.1435 25.9909 24.2146 25.9553C24.428 25.8487 24.5702 25.5998 24.4635 25.3864C23.5035 22.9331 21.9391 20.6931 19.9835 18.9153C20.1613 18.702 20.3035 18.4531 20.4102 18.2398C22.7213 19.1998 24.8191 20.6575 26.4902 22.542C26.5613 22.6487 26.7035 22.6842 26.8102 22.6842C26.9169 22.6842 27.0235 22.6487 27.0946 22.5775C27.2724 22.3998 27.308 22.1509 27.1302 21.9375C25.3524 19.9464 23.148 18.382 20.6946 17.3864C20.7658 17.1375 20.8369 16.8531 20.8724 16.6042C23.3613 16.7109 25.8502 17.3864 28.0546 18.5598C28.1258 18.5953 28.1969 18.6309 28.268 18.6309C28.4102 18.6309 28.588 18.5598 28.6591 18.382C28.7658 18.1687 28.6946 17.8842 28.4813 17.7775C26.1346 16.4975 23.5391 15.822 20.8724 15.7153C20.8724 15.502 20.8369 15.2886 20.8013 15.0398C20.8013 15.0042 20.7658 14.9331 20.7658 14.8975C23.148 14.1509 25.708 13.902 28.1969 14.2931C28.4458 14.3287 28.6591 14.1509 28.6946 13.902C28.7302 13.6531 28.5524 13.4398 28.3035 13.4042C25.6724 13.0131 23.0058 13.262 20.4813 14.0442C20.3746 13.7953 20.2324 13.5464 20.0902 13.3331C22.0813 11.8042 24.3924 10.7375 26.8458 10.2042C27.0946 10.1687 27.2369 9.91976 27.2013 9.67087C27.1658 9.42198 26.9169 9.27976 26.668 9.31532C24.108 9.88421 21.6546 11.022 19.5569 12.622C19.3791 12.4442 19.1658 12.2664 18.9524 12.0887ZM19.0946 18.5598C18.1702 19.6975 16.6769 20.2309 15.2191 19.9464C13.6546 19.662 12.3746 18.382 12.0902 16.8175C11.8769 15.6087 12.1613 14.3998 12.9435 13.4753C13.6902 12.5509 14.828 12.0175 16.0369 12.0175C16.2858 12.0175 16.5702 12.0531 16.8191 12.0887C18.3835 12.3731 19.6635 13.6531 19.948 15.2175C20.1613 16.3909 19.8413 17.6353 19.0946 18.5598Z" fill="white"/>
<path d="M16 14.2578C15.04 14.2578 14.2578 15.04 14.2578 16C14.2578 16.96 15.04 17.7423 16 17.7423C16.96 17.7423 17.7423 16.96 17.7423 16C17.7423 15.04 16.96 14.2578 16 14.2578ZM16 16.8534C15.5378 16.8534 15.1467 16.4623 15.1467 16C15.1467 15.5378 15.5378 15.1467 16 15.1467C16.4623 15.1467 16.8534 15.5378 16.8534 16C16.8534 16.4623 16.4623 16.8534 16 16.8534Z" fill="white"/>
</svg>
