<svg width="32" height="32" viewBox="0 0 32 32" fill="none" xmlns="http://www.w3.org/2000/svg">
<path fill-rule="evenodd" clip-rule="evenodd" d="M15.812 31.0977C24.0963 31.0977 30.812 24.3819 30.812 16.0977C30.812 7.81339 24.0963 1.09766 15.812 1.09766C7.52774 1.09766 0.812012 7.81339 0.812012 16.0977C0.812012 24.3819 7.52774 31.0977 15.812 31.0977ZM23.67 6.82655C23.4225 5.14237 21.6172 4.17701 20.0791 4.90633L17.9819 5.90073C17.2307 6.2569 16.3526 6.22177 15.6323 5.80674L13.6246 4.6499C12.1605 3.80632 10.2967 4.60567 9.89867 6.24783L9.33225 8.58488C9.13911 9.38178 8.57213 10.0359 7.81071 10.3402L5.57973 11.2318C4.0172 11.8562 3.4868 13.8027 4.51651 15.1335L5.9629 17.0029C6.46775 17.6554 6.62317 18.5129 6.37943 19.301L5.6797 21.5638C5.17792 23.1863 6.38396 24.8333 8.08232 24.8447L10.3804 24.8601C11.2146 24.8657 11.9925 25.2817 12.4603 25.9723L13.7492 27.875C14.7018 29.2812 16.7411 29.3697 17.812 28.0514L19.3053 26.2131C19.8703 25.6338 20.1223 25.3755 20.4256 25.2799C20.6698 25.2031 20.9472 25.2317 21.4479 25.2834L23.8057 25.4483C25.4843 25.5657 26.8086 24.0438 26.4603 22.3976L25.8252 20.1675C25.6555 19.3653 26.0225 18.4101 26.578 17.807L28.2071 16.0382C29.3519 14.7954 28.9817 12.8014 27.4672 12.0522L25.3903 11.0248C24.6451 10.6562 24.1283 9.94537 24.0075 9.12289L23.67 6.82655Z" fill="white"/>
<path d="M16 0C7.18222 0 0 7.18222 0 16C0 24.8178 7.18222 32 16 32C24.8178 32 32 24.8178 32 16C32 7.18222 24.8178 0 16 0ZM16 30.2222C8.14222 30.2222 1.77778 23.8578 1.77778 16C1.77778 8.14222 8.14222 1.77778 16 1.77778C23.8578 1.77778 30.2222 8.14222 30.2222 16C30.2222 23.8578 23.8578 30.2222 16 30.2222Z" fill="#C4C4C4"/>
<path d="M16 0C7.18222 0 0 7.18222 0 16C0 24.8178 7.18222 32 16 32C24.8178 32 32 24.8178 32 16C32 7.18222 24.8178 0 16 0ZM16 30.2222C8.14222 30.2222 1.77778 23.8578 1.77778 16C1.77778 8.14222 8.14222 1.77778 16 1.77778C23.8578 1.77778 30.2222 8.14222 30.2222 16C30.2222 23.8578 23.8578 30.2222 16 30.2222Z" fill="#C4C4C4"/>
<path d="M16 0C7.18222 0 0 7.18222 0 16C0 24.8178 7.18222 32 16 32C24.8178 32 32 24.8178 32 16C32 7.18222 24.8178 0 16 0ZM16 30.2222C8.14222 30.2222 1.77778 23.8578 1.77778 16C1.77778 8.14222 8.14222 1.77778 16 1.77778C23.8578 1.77778 30.2222 8.14222 30.2222 16C30.2222 23.8578 23.8578 30.2222 16 30.2222Z" fill="#C4C4C4"/>
<path d="M25.85 12.8523C27.701 13.2505 28.4764 15.4648 27.2784 16.9309L26.3229 18.1002C25.7849 18.7586 25.6132 19.643 25.8656 20.4549L26.3207 21.9184C26.8736 23.6965 25.3833 25.4433 23.5403 25.1772L21.8679 24.9357C21.0495 24.8175 20.2249 25.1063 19.6591 25.7092L18.5027 26.9414C17.2285 28.2992 14.9739 27.8639 14.2967 26.1294L13.7392 24.7017C13.43 23.9097 12.744 23.3257 11.9127 23.1468L10.4365 22.8292C8.58556 22.4309 7.81008 20.2166 9.00814 18.7505L9.96361 17.5813C10.5016 16.9229 10.6734 16.0385 10.4209 15.2266L9.96581 13.7631C9.41288 11.985 10.9033 10.2382 12.7462 10.5043L14.4187 10.7458C15.2371 10.8639 16.0616 10.5752 16.6274 9.97224L17.7838 8.74007C19.058 7.38228 21.3126 7.81755 21.9899 9.55208L22.5473 10.9797C22.8565 11.7718 23.5426 12.3558 24.3738 12.5346L25.85 12.8523Z" fill="#8A8989"/>
</svg>
