<svg width="18" height="18" viewBox="0 0 18 18" fill="none" xmlns="http://www.w3.org/2000/svg">
<path d="M12.5 11.1148C12.5 12.3461 11.2516 13.5 9.5 13.5C7.74844 13.5 6.5 12.3461 6.5 11.1148C6.5 10.9156 6.58995 10.5282 6.78405 9.97053C6.971 9.43346 7.23312 8.79649 7.53003 8.12718C8.12335 6.7897 8.84251 5.35232 9.34147 4.38188C9.41074 4.24715 9.58926 4.24715 9.65853 4.38188C10.1575 5.35232 10.8766 6.7897 11.47 8.12718C11.7669 8.79649 12.029 9.43346 12.2159 9.97053C12.4101 10.5282 12.5 10.9156 12.5 11.1148Z" stroke="currentColor"/>
<path d="M6 5.95085C6 6.53028 5.55228 7 5 7C4.44772 7 4 6.53028 4 5.95085C4 5.37142 5 3 5 3C5 3 6 5.37142 6 5.95085Z" fill="currentColor"/>
</svg>
