<svg width="24" height="24" viewBox="0 0 24 24" fill="none" xmlns="http://www.w3.org/2000/svg">
<rect x="0.5" y="0.5" width="23" height="23" rx="5.5" stroke="white"/>
<path d="M0.480469 8.15549C1.32582 8.49007 2.08159 8.89792 4.09296 9.69865M21.9999 13C20.9635 13 18.4034 12.9556 17.3953 12.874M4.09296 9.69865C4.77514 9.2991 7.87901 8 10.7441 8M4.09296 9.69865C4.88344 10.0133 5.22772 10.196 6.13948 10.5M6.13948 10.5C6.82165 11.2892 6.6511 13.5 10.2325 16M6.13948 10.5C7.10403 10.8216 8.64271 11.2632 9.72087 11.5458M9.72087 11.5458C10.5736 11.2414 14.1209 10 15.3488 10M9.72087 11.5458C11.1724 11.9263 12.7165 12.2588 14.3255 12.5095M14.3255 12.5095C14.8372 13.3397 17.7023 16 18.9302 16M14.3255 12.5095C15.3259 12.6653 16.3514 12.7896 17.3953 12.874M17.3953 12.874C17.7364 12.1269 19.8511 10 21.4883 10" stroke="white"/>
</svg>
